<svg xmlns="http://www.w3.org/2000/svg" width="460" height="234" role="img" aria-label="Top languages">
  <rect width="100%" height="100%" rx="14" fill="#f8fafc" stroke="#cbd5e1"/>
  <text x="24" y="28" font-size="18" font-weight="700" fill="#0f172a">Top Languages (Static)</text>
  <text x="24" y="48" font-size="14" fill="#0f172a">Java</text><rect x="150" y="36" width="260" height="10" rx="5" fill="#2563eb"/><text x="420" y="48" font-size="12" text-anchor="end" fill="#334155">666 KB</text><text x="24" y="76" font-size="14" fill="#0f172a">JavaScript</text><rect x="150" y="64" width="235" height="10" rx="5" fill="#2563eb"/><text x="420" y="76" font-size="12" text-anchor="end" fill="#334155">604 KB</text><text x="24" y="104" font-size="14" fill="#0f172a">TypeScript</text><rect x="150" y="92" width="161" height="10" rx="5" fill="#2563eb"/><text x="420" y="104" font-size="12" text-anchor="end" fill="#334155">413 KB</text><text x="24" y="132" font-size="14" fill="#0f172a">HTML</text><rect x="150" y="120" width="92" height="10" rx="5" fill="#2563eb"/><text x="420" y="132" font-size="12" text-anchor="end" fill="#334155">237 KB</text><text x="24" y="160" font-size="14" fill="#0f172a">CSS</text><rect x="150" y="148" width="21" height="10" rx="5" fill="#2563eb"/><text x="420" y="160" font-size="12" text-anchor="end" fill="#334155">55 KB</text><text x="24" y="188" font-size="14" fill="#0f172a">Shell</text><rect x="150" y="176" width="0" height="10" rx="5" fill="#2563eb"/><text x="420" y="188" font-size="12" text-anchor="end" fill="#334155">1 KB</text>
</svg>