<svg xmlns="http://www.w3.org/2000/svg" width="495" height="254" role="img" aria-label="Top languages">
  <defs>
    <linearGradient id="bgLangs" x1="0" y1="0" x2="0" y2="1">
      <stop offset="0%" stop-color="#1a1f2e"/>
      <stop offset="100%" stop-color="#0d1117"/>
    </linearGradient>
    <linearGradient id="accentLangs" x1="0" y1="0" x2="1" y2="0">
      <stop offset="0%" stop-color="#58a6ff"/>
      <stop offset="100%" stop-color="#79c0ff"/>
    </linearGradient>
  </defs>
  <style>
    text {
      font-family: -apple-system, BlinkMacSystemFont, "Segoe UI", Helvetica, Arial, sans-serif;
    }
  </style>
  <rect width="100%" height="100%" rx="14" fill="url(#bgLangs)" stroke="#30363d"/>
  <rect x="18" y="19" width="190" height="4" rx="2" fill="url(#accentLangs)"/>
  <text x="26" y="48" font-size="17" font-weight="700" fill="#f0f6fc">Top Languages</text>
  <text x="26" y="72" font-size="12.5" fill="#a8b3cf">Java</text><rect x="150" y="61" width="230" height="8" rx="4" fill="#21262d"/><rect x="150" y="61" width="230" height="8" rx="4" fill="#58a6ff"/><text x="471" y="72" font-size="12.5" text-anchor="end" fill="#f0f6fc" font-weight="700">33.7%</text><text x="26" y="99" font-size="12.5" fill="#a8b3cf">JavaScript</text><rect x="150" y="88" width="230" height="8" rx="4" fill="#21262d"/><rect x="150" y="88" width="208" height="8" rx="4" fill="#58a6ff"/><text x="471" y="99" font-size="12.5" text-anchor="end" fill="#f0f6fc" font-weight="700">30.6%</text><text x="26" y="126" font-size="12.5" fill="#a8b3cf">TypeScript</text><rect x="150" y="115" width="230" height="8" rx="4" fill="#21262d"/><rect x="150" y="115" width="142" height="8" rx="4" fill="#58a6ff"/><text x="471" y="126" font-size="12.5" text-anchor="end" fill="#f0f6fc" font-weight="700">20.9%</text><text x="26" y="153" font-size="12.5" fill="#a8b3cf">HTML</text><rect x="150" y="142" width="230" height="8" rx="4" fill="#21262d"/><rect x="150" y="142" width="81" height="8" rx="4" fill="#58a6ff"/><text x="471" y="153" font-size="12.5" text-anchor="end" fill="#f0f6fc" font-weight="700">12.0%</text><text x="26" y="180" font-size="12.5" fill="#a8b3cf">CSS</text><rect x="150" y="169" width="230" height="8" rx="4" fill="#21262d"/><rect x="150" y="169" width="19" height="8" rx="4" fill="#58a6ff"/><text x="471" y="180" font-size="12.5" text-anchor="end" fill="#f0f6fc" font-weight="700">2.8%</text><text x="26" y="207" font-size="12.5" fill="#a8b3cf">Shell</text><rect x="150" y="196" width="230" height="8" rx="4" fill="#21262d"/><rect x="150" y="196" width="0" height="8" rx="4" fill="#58a6ff"/><text x="471" y="207" font-size="12.5" text-anchor="end" fill="#f0f6fc" font-weight="700">0.0%</text>
</svg>